# xmcd CD database file
#
# Track frame offsets:
#	150
#	12345
#	31482
#	46055
#	59695
#	79507
#	99527
#	112835
#	127515
#	141410
#	162662
#
# Disc length: 2457 seconds
#
# Revision: 2
# Processed by: cddbd v1.5PL3 Copyright (c) Steve Scherf et al.
# Submitted via: CDex 1.51
#
DISCID=8809970b
DTITLE=Scott Ainslie - Jealous of the Moon
DYEAR=1995
DGENRE=Blues
TTITLE0=We can't Go on This Way
TTITLE1=Crazy Love
TTITLE2=You Don't Know What Love Is
TTITLE3=Stones in My Passway
TTITLE4=Come on in My Kitchen
TTITLE5=Wayfaring Stranger
TTITLE6=Love Her with a Feeling
TTITLE7=Date for Church
TTITLE8=Travelin' Riverside Blues
TTITLE9=Jealous of the Moon
TTITLE10=Hard Times, Come Again No More
EXTD=YEAR: 1995
EXTT0=
EXTT1=
EXTT2=
EXTT3=
EXTT4=
EXTT5=
EXTT6=
EXTT7=
EXTT8=
EXTT9=
EXTT10=
PLAYORDER=
